<svg
						width="57"
						height="58"
						viewBox="0 0 57 58"
						fill="none"
						xmlns="http://www.w3.org/2000/svg"
					>
						<path
							fill-rule="evenodd"
							clip-rule="evenodd"
							d="M28.5 0C12.7537 0 0 12.9775 0 29C0 41.8325 8.15812 52.6712 19.4869 56.5138C20.9119 56.7675 21.4462 55.8975 21.4462 55.1362C21.4462 54.4475 21.4106 52.1637 21.4106 49.735C14.25 51.0763 12.3975 47.9587 11.8275 46.3275C11.5069 45.4937 10.1175 42.92 8.90625 42.2312C7.90875 41.6875 6.48375 40.3462 8.87063 40.31C11.115 40.2738 12.7181 42.4125 13.2525 43.2825C15.8175 47.6687 19.9144 46.4363 21.5531 45.675C21.8025 43.79 22.5506 42.5212 23.37 41.7962C17.0287 41.0713 10.4025 38.57 10.4025 27.4775C10.4025 24.3237 11.5069 21.7137 13.3238 19.6838C13.0387 18.9587 12.0413 15.9862 13.6087 11.9987C13.6087 11.9987 15.9956 11.2375 21.4462 14.9713C23.7262 14.3188 26.1488 13.9925 28.5713 13.9925C30.9938 13.9925 33.4163 14.3188 35.6963 14.9713C41.1469 11.2013 43.5338 11.9987 43.5338 11.9987C45.1012 15.9862 44.1038 18.9587 43.8188 19.6838C45.6356 21.7137 46.74 24.2875 46.74 27.4775C46.74 38.6063 40.0781 41.0713 33.7369 41.7962C34.77 42.7025 35.6606 44.4425 35.6606 47.1613C35.6606 51.04 35.625 54.1575 35.625 55.1362C35.625 55.8975 36.1594 56.8037 37.5844 56.5138C43.2421 54.5702 48.1585 50.8703 51.6414 45.9346C55.1244 40.999 56.9985 35.0762 57 29C57 12.9775 44.2463 0 28.5 0Z"
							fill="black"
						/>
					</svg>