<svg
						width="64"
						height="64"
						viewBox="0 0 64 64"
						fill="none"
						xmlns="http://www.w3.org/2000/svg"
					>
						<path
							d="M54.6667 5.33325H9.33334C8.27247 5.33325 7.25505 5.75468 6.50491 6.50482C5.75476 7.25497 5.33334 8.27239 5.33334 9.33325V54.6666C5.33334 55.7274 5.75476 56.7449 6.50491 57.495C7.25505 58.2452 8.27247 58.6666 9.33334 58.6666H54.6667C55.7275 58.6666 56.7449 58.2452 57.4951 57.495C58.2452 56.7449 58.6667 55.7274 58.6667 54.6666V9.33325C58.6667 8.27239 58.2452 7.25497 57.4951 6.50482C56.7449 5.75468 55.7275 5.33325 54.6667 5.33325ZM21.3333 50.6666H13.3333V26.6666H21.3333V50.6666ZM17.3333 21.9999C16.4165 21.9737 15.5277 21.6779 14.778 21.1495C14.0283 20.621 13.451 19.8833 13.1181 19.0287C12.7853 18.174 12.7117 17.2401 12.9065 16.3438C13.1013 15.4476 13.556 14.6286 14.2136 13.9892C14.8713 13.3498 15.7028 12.9184 16.6042 12.7489C17.5056 12.5794 18.437 12.6792 19.282 13.036C20.1269 13.3928 20.848 13.9907 21.3552 14.755C21.8623 15.5193 22.133 16.416 22.1333 17.3333C22.1123 18.5875 21.5956 19.7824 20.6961 20.6569C19.7967 21.5313 18.5877 22.0142 17.3333 21.9999ZM50.6667 50.6666H42.6667V38.0266C42.6667 34.2399 41.0667 32.8799 38.9867 32.8799C38.3768 32.9205 37.781 33.0812 37.2335 33.3527C36.6859 33.6243 36.1974 34.0013 35.796 34.4622C35.3945 34.9231 35.0881 35.4587 34.8943 36.0384C34.7005 36.618 34.6232 37.2303 34.6667 37.8399C34.6534 37.964 34.6534 38.0892 34.6667 38.2132V50.6666H26.6667V26.6666H34.4V30.1333C35.1801 28.9466 36.2518 27.9801 37.5125 27.3264C38.7732 26.6727 40.1806 26.3537 41.6 26.3999C45.7333 26.3999 50.56 28.6933 50.56 36.1599L50.6667 50.6666Z"
							fill="black"
						/>
					</svg>